<?xml version="1.0" encoding="UTF-8" standalone="no"?>
<!DOCTYPE svg PUBLIC "-//W3C//DTD SVG 1.1//EN"
 "http://www.w3.org/Graphics/SVG/1.1/DTD/svg11.dtd">
<!-- Generated by graphviz version 10.0.1 (20240210.2158)
 -->
<!-- Pages: 1 -->
<svg width="334pt" height="44pt"
 viewBox="0.00 0.00 334.31 44.00" xmlns="http://www.w3.org/2000/svg" xmlns:xlink="http://www.w3.org/1999/xlink">
<g id="graph0" class="graph" transform="scale(1 1) rotate(0) translate(4 40)">
<polygon fill="white" stroke="none" points="-4,4 -4,-40 330.31,-40 330.31,4 -4,4"/>
<!-- Eingabe -->
<g id="node1" class="node">
<title>Eingabe</title>
<ellipse fill="none" stroke="black" cx="41.12" cy="-18" rx="41.12" ry="18"/>
<text text-anchor="middle" x="41.12" y="-12.95" font-family="Times,serif" font-size="14.00">Eingabe</text>
</g>
<!-- Verarbeitung -->
<g id="node2" class="node">
<title>Verarbeitung</title>
<polygon fill="#ff7777" stroke="black" points="203.98,-36 118.23,-36 118.23,0 203.98,0 203.98,-36"/>
<text text-anchor="middle" x="161.11" y="-12.95" font-family="Times,serif" font-size="14.00">Verarbeitung</text>
</g>
<!-- Eingabe&#45;&gt;Verarbeitung -->
<g id="edge1" class="edge">
<title>Eingabe&#45;&gt;Verarbeitung</title>
<path fill="none" stroke="black" d="M82.72,-18C90.33,-18 98.4,-18 106.34,-18"/>
<polygon fill="black" stroke="black" points="106.3,-21.5 116.3,-18 106.3,-14.5 106.3,-21.5"/>
</g>
<!-- Ausgabe -->
<g id="node3" class="node">
<title>Ausgabe</title>
<ellipse fill="none" stroke="black" cx="283.14" cy="-18" rx="43.16" ry="18"/>
<text text-anchor="middle" x="283.14" y="-12.95" font-family="Times,serif" font-size="14.00">Ausgabe</text>
</g>
<!-- Verarbeitung&#45;&gt;Ausgabe -->
<g id="edge2" class="edge">
<title>Verarbeitung&#45;&gt;Ausgabe</title>
<path fill="none" stroke="black" d="M204.43,-18C212.23,-18 220.46,-18 228.54,-18"/>
<polygon fill="black" stroke="black" points="228.29,-21.5 238.29,-18 228.29,-14.5 228.29,-21.5"/>
</g>
</g>
</svg>
