<?xml version="1.0" encoding="UTF-8" standalone="no"?>
<!DOCTYPE svg PUBLIC "-//W3C//DTD SVG 1.1//EN"
 "http://www.w3.org/Graphics/SVG/1.1/DTD/svg11.dtd">
<!-- Generated by graphviz version 10.0.1 (20240210.2158)
 -->
<!-- Pages: 1 -->
<svg width="823pt" height="260pt"
 viewBox="0.00 0.00 823.38 260.00" xmlns="http://www.w3.org/2000/svg" xmlns:xlink="http://www.w3.org/1999/xlink">
<g id="graph0" class="graph" transform="scale(1 1) rotate(0) translate(4 256)">
<polygon fill="white" stroke="none" points="-4,4 -4,-256 819.38,-256 819.38,4 -4,4"/>
<!-- KI -->
<g id="node1" class="node">
<title>KI</title>
<polygon fill="lightgreen" stroke="black" points="169,-252 115,-252 115,-216 169,-216 169,-252"/>
<text text-anchor="middle" x="142" y="-228.95" font-family="Times,serif" font-size="14.00">KI</text>
</g>
<!-- Regel&#45;basiert -->
<g id="node2" class="node">
<title>Regel&#45;basiert</title>
<polygon fill="#ffcccc" stroke="black" points="88,-180 0,-180 0,-144 88,-144 88,-180"/>
<text text-anchor="middle" x="44" y="-156.95" font-family="Times,serif" font-size="14.00">Regel&#45;basiert</text>
</g>
<!-- KI&#45;&gt;Regel&#45;basiert -->
<g id="edge1" class="edge">
<title>KI&#45;&gt;Regel&#45;basiert</title>
<path fill="none" stroke="black" d="M117.52,-215.52C105.39,-206.85 90.55,-196.25 77.39,-186.85"/>
<polygon fill="black" stroke="black" points="79.57,-184.1 69.4,-181.14 75.5,-189.8 79.57,-184.1"/>
</g>
<!-- Statistisch -->
<g id="node3" class="node">
<title>Statistisch</title>
<polygon fill="#ffcccc" stroke="black" points="177.75,-180 106.25,-180 106.25,-144 177.75,-144 177.75,-180"/>
<text text-anchor="middle" x="142" y="-156.95" font-family="Times,serif" font-size="14.00">Statistisch</text>
</g>
<!-- KI&#45;&gt;Statistisch -->
<g id="edge2" class="edge">
<title>KI&#45;&gt;Statistisch</title>
<path fill="none" stroke="black" d="M142,-215.7C142,-208.41 142,-199.73 142,-191.54"/>
<polygon fill="black" stroke="black" points="145.5,-191.62 142,-181.62 138.5,-191.62 145.5,-191.62"/>
</g>
<!-- Maschinelles Lernen -->
<g id="node4" class="node">
<title>Maschinelles Lernen</title>
<polygon fill="lightgreen" stroke="black" points="326,-180 196,-180 196,-144 326,-144 326,-180"/>
<text text-anchor="middle" x="261" y="-156.95" font-family="Times,serif" font-size="14.00">Maschinelles Lernen</text>
</g>
<!-- KI&#45;&gt;Maschinelles Lernen -->
<g id="edge3" class="edge">
<title>KI&#45;&gt;Maschinelles Lernen</title>
<path fill="none" stroke="black" d="M169.3,-216.94C184.79,-207.83 204.44,-196.27 221.58,-186.19"/>
<polygon fill="black" stroke="black" points="223.18,-189.31 230.02,-181.22 219.63,-183.28 223.18,-189.31"/>
</g>
<!-- Verstärkungslernen -->
<g id="node5" class="node">
<title>Verstärkungslernen</title>
<polygon fill="lightgray" stroke="black" points="172.12,-108 51.88,-108 51.88,-72 172.12,-72 172.12,-108"/>
<text text-anchor="middle" x="112" y="-84.95" font-family="Times,serif" font-size="14.00">Verstärkungslernen</text>
</g>
<!-- Maschinelles Lernen&#45;&gt;Verstärkungslernen -->
<g id="edge4" class="edge">
<title>Maschinelles Lernen&#45;&gt;Verstärkungslernen</title>
<path fill="none" stroke="black" d="M223.79,-143.52C204.24,-134.34 180.09,-122.99 159.24,-113.2"/>
<polygon fill="black" stroke="black" points="160.91,-110.11 150.37,-109.03 157.93,-116.45 160.91,-110.11"/>
</g>
<!-- Unüberwachtes Lernen -->
<g id="node6" class="node">
<title>Unüberwachtes Lernen</title>
<polygon fill="none" stroke="black" points="332,-108 190,-108 190,-72 332,-72 332,-108"/>
<text text-anchor="middle" x="261" y="-84.95" font-family="Times,serif" font-size="14.00">Unüberwachtes Lernen</text>
</g>
<!-- Maschinelles Lernen&#45;&gt;Unüberwachtes Lernen -->
<g id="edge5" class="edge">
<title>Maschinelles Lernen&#45;&gt;Unüberwachtes Lernen</title>
<path fill="none" stroke="black" d="M261,-143.7C261,-136.41 261,-127.73 261,-119.54"/>
<polygon fill="black" stroke="black" points="264.5,-119.62 261,-109.62 257.5,-119.62 264.5,-119.62"/>
</g>
<!-- Überwachtes Lernen -->
<g id="node7" class="node">
<title>Überwachtes Lernen</title>
<polygon fill="lightgreen" stroke="black" points="557.25,-108 428.75,-108 428.75,-72 557.25,-72 557.25,-108"/>
<text text-anchor="middle" x="493" y="-84.95" font-family="Times,serif" font-size="14.00">Überwachtes Lernen</text>
</g>
<!-- Maschinelles Lernen&#45;&gt;Überwachtes Lernen -->
<g id="edge6" class="edge">
<title>Maschinelles Lernen&#45;&gt;Überwachtes Lernen</title>
<path fill="none" stroke="black" d="M318.94,-143.52C351.04,-133.83 391.12,-121.74 424.73,-111.6"/>
<polygon fill="black" stroke="black" points="425.38,-115.06 433.94,-108.82 423.36,-108.36 425.38,-115.06"/>
</g>
<!-- Clustering -->
<g id="node8" class="node">
<title>Clustering</title>
<polygon fill="none" stroke="black" points="176.12,-36 103.88,-36 103.88,0 176.12,0 176.12,-36"/>
<text text-anchor="middle" x="140" y="-12.95" font-family="Times,serif" font-size="14.00">Clustering</text>
</g>
<!-- Unüberwachtes Lernen&#45;&gt;Clustering -->
<g id="edge7" class="edge">
<title>Unüberwachtes Lernen&#45;&gt;Clustering</title>
<path fill="none" stroke="black" d="M230.78,-71.52C215.21,-62.51 196.05,-51.42 179.34,-41.76"/>
<polygon fill="black" stroke="black" points="181.55,-39 171.15,-37.02 178.05,-45.06 181.55,-39"/>
</g>
<!-- Dimensionsreduktion -->
<g id="node9" class="node">
<title>Dimensionsreduktion</title>
<polygon fill="none" stroke="black" points="327.5,-36 194.5,-36 194.5,0 327.5,0 327.5,-36"/>
<text text-anchor="middle" x="261" y="-12.95" font-family="Times,serif" font-size="14.00">Dimensionsreduktion</text>
</g>
<!-- Unüberwachtes Lernen&#45;&gt;Dimensionsreduktion -->
<g id="edge8" class="edge">
<title>Unüberwachtes Lernen&#45;&gt;Dimensionsreduktion</title>
<path fill="none" stroke="black" d="M261,-71.7C261,-64.41 261,-55.73 261,-47.54"/>
<polygon fill="black" stroke="black" points="264.5,-47.62 261,-37.62 257.5,-47.62 264.5,-47.62"/>
</g>
<!-- Entscheidungsbäume -->
<g id="node10" class="node">
<title>Entscheidungsbäume</title>
<polygon fill="none" stroke="black" points="476.75,-36 345.25,-36 345.25,0 476.75,0 476.75,-36"/>
<text text-anchor="middle" x="411" y="-12.95" font-family="Times,serif" font-size="14.00">Entscheidungsbäume</text>
</g>
<!-- Überwachtes Lernen&#45;&gt;Entscheidungsbäume -->
<g id="edge9" class="edge">
<title>Überwachtes Lernen&#45;&gt;Entscheidungsbäume</title>
<path fill="none" stroke="black" d="M472.73,-71.7C462.87,-63.28 450.85,-53.02 440.04,-43.79"/>
<polygon fill="black" stroke="black" points="442.35,-41.16 432.47,-37.33 437.81,-46.48 442.35,-41.16"/>
</g>
<!-- Support Vector Machines -->
<g id="node11" class="node">
<title>Support Vector Machines</title>
<polygon fill="none" stroke="black" points="649,-36 495,-36 495,0 649,0 649,-36"/>
<text text-anchor="middle" x="572" y="-12.95" font-family="Times,serif" font-size="14.00">Support Vector Machines</text>
</g>
<!-- Überwachtes Lernen&#45;&gt;Support Vector Machines -->
<g id="edge10" class="edge">
<title>Überwachtes Lernen&#45;&gt;Support Vector Machines</title>
<path fill="none" stroke="black" d="M512.53,-71.7C522.02,-63.28 533.61,-53.02 544.02,-43.79"/>
<polygon fill="black" stroke="black" points="546.13,-46.6 551.29,-37.35 541.48,-41.36 546.13,-46.6"/>
</g>
<!-- (Tiefe) Neuronale Netze -->
<g id="node12" class="node">
<title>(Tiefe) Neuronale Netze</title>
<polygon fill="#ff7777" stroke="black" points="815.38,-36 666.62,-36 666.62,0 815.38,0 815.38,-36"/>
<text text-anchor="middle" x="741" y="-12.95" font-family="Times,serif" font-size="14.00">(Tiefe) Neuronale Netze</text>
</g>
<!-- Überwachtes Lernen&#45;&gt;(Tiefe) Neuronale Netze -->
<g id="edge11" class="edge">
<title>Überwachtes Lernen&#45;&gt;(Tiefe) Neuronale Netze</title>
<path fill="none" stroke="black" d="M554.94,-71.52C589.4,-61.79 632.46,-49.64 668.48,-39.47"/>
<polygon fill="black" stroke="black" points="669.29,-42.88 677.96,-36.79 667.39,-36.14 669.29,-42.88"/>
</g>
</g>
</svg>
